<?xml version="1.0" encoding="UTF-8"?>
<svg id="Capa_1" xmlns="http://www.w3.org/2000/svg" version="1.1" viewBox="0 0 32 32">
  <!-- Generator: Adobe Illustrator 30.0.0, SVG Export Plug-In . SVG Version: 2.1.1 Build 123)  -->
  <defs>
    <style>
      .st0 {
        fill: #fff;
      }
    </style>
  </defs>
  <path class="st0" d="M16.5,4c-6.9,0-12.5,5.6-12.5,12.5s5.6,12.5,12.5,12.5,12.5-5.6,12.5-12.5-5.6-12.5-12.5-12.5ZM16.5,28c-6.34,0-11.5-5.16-11.5-11.5s5.16-11.5,11.5-11.5,11.5,5.16,11.5,11.5-5.16,11.5-11.5,11.5ZM17,11v5h3v1h-4v-6h1ZM10.85,15.85l-2.35,2.36-2.35-2.36.7-.7,1.15,1.15c.11-4.61,3.87-8.3,8.5-8.3,3.68,0,6.82,2.34,7.99,5.62l-.79.79c-.91-3.13-3.79-5.41-7.2-5.41-4.07,0-7.38,3.24-7.49,7.28l1.14-1.13.7.7ZM26.85,17.14l-.7.71-1.15-1.14c-.12,4.61-3.88,8.29-8.5,8.29-3.61,0-6.71-2.26-7.93-5.45l.78-.78c.96,3.03,3.8,5.23,7.15,5.23,4.06,0,7.38-3.25,7.49-7.28l-1.14,1.13-.7-.7,2.35-2.36,2.35,2.35Z"/>
</svg>