<svg xmlns="http://www.w3.org/2000/svg" xmlns:xlink="http://www.w3.org/1999/xlink" version="1.1" x="0px" y="0px" width="32" height="32" viewBox="0 0 32 32" style="fill: rgb(255, 255, 255);" xml:space="preserve" preserveAspectRatio="none" viewbox="0 0 32 32">
<path d="M27.414,8L21,1.586C20.646,1.232,20.621,1,20,1h-8.5C10.672,1,10,1.672,10,2.5V7H5.5C4.672,7,4,7.672,4,8.5v21  C4,30.328,4.672,31,5.5,31h15c0.828,0,1.5-0.672,1.5-1.5V25h4.5c0.828,0,1.5-0.672,1.5-1.5V9C28,8.368,27.768,8.354,27.414,8z M21,3  l5,5c-1.86,0-4.5,0-4.5,0C21.224,8,21,7.776,21,7.5V3z M21,29.5c0,0.276-0.224,0.5-0.5,0.5h-15C5.224,30,5,29.776,5,29.5v-21  C5,8.224,5.224,8,5.5,8c1,0,8.5,0,8.5,0v5.5c0,0.828,0.671,1.5,1.5,1.5H21C21,15,21,29,21,29.5z M15,13.5V9l5,5c-1.86,0-4.5,0-4.5,0  C15.224,14,15,13.776,15,13.5z M27,23.5c0,0.276-0.224,0.5-0.5,0.5H22v-9c0-0.632-0.232-0.646-0.586-1L15,7.586  C14.646,7.232,14.621,7,14,7h-3V2.5C11,2.224,11.224,2,11.5,2c1,0,8.5,0,8.5,0v5.5C20,8.328,20.672,9,21.5,9H27C27,9,27,23,27,23.5z  " style="fill: rgb(255, 255, 255);"></path>
</svg>