<svg xmlns="http://www.w3.org/2000/svg" xmlns:xlink="http://www.w3.org/1999/xlink" version="1.1"  x="0px" y="0px" width="32" height="32" viewBox="0 0 32 32" style="fill: rgb(255, 255, 255);" xml:space="preserve" preserveAspectRatio="none" viewbox="0 0 32 32">
<path d="M30.707,11.392C30.443,11.063,30.044,11,29.609,11H26V8.5C26,7.672,25.328,7,24.5,7H24V4H6v3H3.5C2.671,7,2,7.672,2,8.5v17  C2,26.328,2.671,27,3.5,27h22.891c0.743,0,1.426-0.645,1.587-1.375l2.996-13.095C31.069,12.099,30.973,11.723,30.707,11.392z M24,8  h0.5C24.776,8,25,8.224,25,8.5V11h-1V8z M7,5h16v6H8.609c-0.742,0-1.424,0.457-1.588,1.188L7,12.28V5z M3.5,26  C3.224,26,3,25.776,3,25.5v-17C3,8.224,3.224,8,3.5,8H6v8.59l-1.973,8.505C3.96,25.391,3.992,25.716,4.1,26H3.5z M29.95,12.5  l-2.994,13c-0.063,0.276-0.336,0.5-0.612,0.5h-21c-0.276,0-0.45-0.224-0.388-0.5l2.994-13C8.012,12.224,8.286,12,8.563,12h21  C29.839,12,30.013,12.224,29.95,12.5z" style="fill: rgb(255, 255, 255);"></path>
</svg>