<svg version="1.1"  xmlns="http://www.w3.org/2000/svg" xmlns:xlink="http://www.w3.org/1999/xlink" x="0px" y="0px" width="32" height="32" viewBox="0 0 32 32" style="enable-background:new 0 0 32 32;" xml:space="preserve" preserveAspectRatio="none" viewbox="0 0 32 32">
<path d="M24,26.5c0,0.28-0.22,0.5-0.5,0.5h-15C8.22,27,8,26.78,8,26.5v-21C8,5.22,8.22,5,8.5,5c1,0,8.5,0,8.5,0v5.5
	c0,0.83,0.67,1.5,1.5,1.5H24c0,0,0,2.84,0,6h1v-6c0-0.63-0.23-0.65-0.59-1L18,4.59C17.65,4.23,17.62,4,17,4H8.5C7.67,4,7,4.67,7,5.5
	v21C7,27.33,7.67,28,8.5,28h15c0.83,0,1.5-0.67,1.5-1.5V21h-1V26.5z M18,6l5,5c-1.86,0-4.5,0-4.5,0c-0.28,0-0.5-0.22-0.5-0.5V6z
	 M30.21,19.5l-3.36,3.35L26.15,22.15L28.29,20H18.5c-1.98,0-2.5-1.64-2.5-2.5V15h1v2.5c0,0.25,0.09,1.5,1.5,1.5h9.79l-2.14-2.15
	l0.699-0.699L30.21,19.5z"></path>
</svg>