<?xml version="1.0" encoding="UTF-8"?>
<svg id="Capa_1" xmlns="http://www.w3.org/2000/svg" version="1.1" viewBox="0 0 32 32">
  <!-- Generator: Adobe Illustrator 30.0.0, SVG Export Plug-In . SVG Version: 2.1.1 Build 123)  -->
  <defs>
    <style>
      .st0 {
        fill: #fff;
      }
    </style>
  </defs>
  <path class="st0" d="M24,26.5c0,.28-.22.5-.5.5h-15c-.28,0-.5-.22-.5-.5V5.5c0-.28.22-.5.5-.5h8.5v5.5c0,.83.67,1.5,1.5,1.5h5.5v6h1v-6c0-.63-.23-.65-.59-1l-6.41-6.41c-.35-.36-.38-.59-1-.59h-8.5c-.83,0-1.5.67-1.5,1.5v21c0,.83.67,1.5,1.5,1.5h15c.83,0,1.5-.67,1.5-1.5v-5.5h-1v5.5ZM18,6l5,5h-4.5c-.28,0-.5-.22-.5-.5v-4.5ZM30.21,19.5l-3.36,3.35-.7-.7,2.14-2.15h-9.79c-1.98,0-2.5-1.64-2.5-2.5v-2.5h1v2.5c0,.25.09,1.5,1.5,1.5h9.79l-2.14-2.15.7-.7,3.36,3.35Z"/>
</svg>