<?xml version="1.0" encoding="UTF-8"?>
<svg id="Capa_1" xmlns="http://www.w3.org/2000/svg" version="1.1" viewBox="0 0 32 32">
  <!-- Generator: Adobe Illustrator 30.0.0, SVG Export Plug-In . SVG Version: 2.1.1 Build 123)  -->
  <defs>
    <style>
      .st0 {
        stroke: #000;
        stroke-miterlimit: 10;
        stroke-width: .25px;
      }
    </style>
  </defs>
  <path d="M30.71,11.39c-.26-.33-.66-.39-1.1-.39h-3.61v-2.5c0-.83-.67-1.5-1.5-1.5h-.5v-3H6v3h-2.5c-.83,0-1.5.67-1.5,1.5v17c0,.83.67,1.5,1.5,1.5h22.89c.74,0,1.43-.65,1.59-1.38l3-13.1c.09-.43,0-.81-.27-1.14ZM24,8h.5c.28,0,.5.22.5.5v2.5h-1v-3ZM7,5h16v6h-14.39c-.74,0-1.42.46-1.59,1.19l-.02.09v-7.28ZM3.5,26c-.28,0-.5-.22-.5-.5V8.5c0-.28.22-.5.5-.5h2.5v8.59l-1.97,8.51c-.07.3-.03.62.07.9h-.6ZM29.95,12.5l-2.99,13c-.06.28-.34.5-.61.5H5.34c-.28,0-.45-.22-.39-.5l2.99-13c.06-.28.34-.5.61-.5h21c.28,0,.45.22.39.5Z"/>
  <path class="st0" d="M14.61,21.24l3.88-2.24-3.88-2.24s0,4.48,0,4.48ZM15.08,17.57l2.47,1.43-2.47,1.42v-2.85ZM23.79,16.26c-.08-.05-.17-.08-.26-.08-.06,0-.13.01-.19.04l-2.63,1.13v-1.64c0-.26-.21-.47-.47-.47h-7.98c-.26,0-.47.21-.47.47v6.57c0,.26.21.47.47.47h7.98c.26,0,.47-.21.47-.47v-1.63l2.63,1.13c.06.03.12.04.19.04.09,0,.18-.03.26-.08.13-.09.21-.23.21-.39v-4.69c0-.16-.08-.3-.21-.39ZM23.53,21.35l-3.29-1.41v2.35h-7.98v-6.57h7.98v2.35l3.29-1.41v4.69Z"/>
</svg>