<?xml version="1.0" encoding="UTF-8"?>
<svg id="Capa_1" xmlns="http://www.w3.org/2000/svg" version="1.1" viewBox="0 0 32 32">
  <!-- Generator: Adobe Illustrator 30.0.0, SVG Export Plug-In . SVG Version: 2.1.1 Build 123)  -->
  <defs>
    <style>
      .st0 {
        fill: #fff;
      }
    </style>
  </defs>
  <path class="st0" d="M25.5,2H6.45c-.85,0-2.45.52-2.45,2.5v23c0,1.98,1.64,2.5,2.5,2.5h15c1.64,0,2.28-1.13,2.45-2h1.55c.86,0,2.5-.52,2.5-2.5V4.5c0-1.98-1.64-2.5-2.5-2.5ZM23,27.5c0,.25-.09,1.5-1.5,1.5H6.5c-.25,0-1.5-.09-1.5-1.5V6.54c.5.34,1.09.46,1.5.46h15c.25,0,1.5.09,1.5,1.5v19ZM27,25.5c0,1.41-1.25,1.5-1.5,1.5h-1.5V8.5c0-1.98-1.64-2.5-2.5-2.5H6.5c-.25,0-1.5-.09-1.5-1.5s1.21-1.5,1.45-1.5h19.05c.25,0,1.5.09,1.5,1.5v21ZM26,6.5v18.5h-1V6.5c0-1.41-1.25-1.5-1.5-1.5H7v-1h16.5c.86,0,2.5.52,2.5,2.5ZM11.59,20.04l-1.38,1.44,1.44,1.38-.69.73-1.44-1.38-1.39,1.44-.72-.68,1.38-1.45-1.44-1.38.69-.73,1.44,1.38,1.38-1.44.73.69ZM13,14h8v1h-8v-1ZM13,21h8v1h-8v-1ZM12.11,12.58l-.55-.55-2.84,2.84-1.28-1.28-.55.55,1.83,1.83,3.39-3.39Z"/>
</svg>