<svg xmlns="http://www.w3.org/2000/svg" xmlns:xlink="http://www.w3.org/1999/xlink" version="1.1"  x="0px" y="0px" width="32" height="32" viewBox="0 0 32 32" style="enable-background:new 0 0 32 32;" xml:space="preserve" preserveAspectRatio="none" viewbox="0 0 32 32">
<path d="M28.5,6h-25C2.671,6,2,6.672,2,7.5v16C2,24.328,2.671,25,3.5,25H15v2h-5v1h12v-1h-5v-2h11.5c0.828,0,1.5-0.672,1.5-1.5v-16  C30,6.672,29.328,6,28.5,6z M29,23.5c0,0.276-0.224,0.5-0.5,0.5h-25C3.224,24,3,23.776,3,23.5V22h26V23.5z M29,21H3V7.5  C3,7.224,3.224,7,3.5,7h25C28.776,7,29,7.224,29,7.5V21z"></path>
</svg>