<?xml version="1.0" encoding="UTF-8"?>
<svg id="Capa_1" xmlns="http://www.w3.org/2000/svg" version="1.1" viewBox="0 0 32 32">
  <!-- Generator: Adobe Illustrator 30.0.0, SVG Export Plug-In . SVG Version: 2.1.1 Build 123)  -->
  <defs>
    <style>
      .st0 {
        fill: #fff;
      }
    </style>
  </defs>
  <path class="st0" d="M28.5,6H3.5c-.83,0-1.5.67-1.5,1.5v16c0,.83.67,1.5,1.5,1.5h11.5v2h-5v1h12v-1h-5v-2h11.5c.83,0,1.5-.67,1.5-1.5V7.5c0-.83-.67-1.5-1.5-1.5ZM29,23.5c0,.28-.22.5-.5.5H3.5c-.28,0-.5-.22-.5-.5v-1.5h26v1.5ZM29,21H3V7.5c0-.28.22-.5.5-.5h25c.28,0,.5.22.5.5v13.5Z"/>
</svg>