<?xml version="1.0" encoding="UTF-8"?>
<svg id="Capa_1" xmlns="http://www.w3.org/2000/svg" version="1.1" viewBox="0 0 32 32">
  <!-- Generator: Adobe Illustrator 30.0.0, SVG Export Plug-In . SVG Version: 2.1.1 Build 123)  -->
  <defs>
    <style>
      .st0 {
        fill-rule: evenodd;
        stroke: #000;
        stroke-miterlimit: 10;
        stroke-width: .25px;
      }
    </style>
  </defs>
  <path d="M30.71,11.39c-.26-.33-.66-.39-1.1-.39h-3.61v-2.5c0-.83-.67-1.5-1.5-1.5h-.5v-3H6v3h-2.5c-.83,0-1.5.67-1.5,1.5v17c0,.83.67,1.5,1.5,1.5h22.89c.74,0,1.43-.65,1.59-1.38l3-13.1c.09-.43,0-.81-.27-1.14h0ZM24,8h.5c.28,0,.5.22.5.5v2.5h-1v-3ZM7,5h16v6h-14.39c-.74,0-1.42.46-1.59,1.19l-.02.09s0-7.28,0-7.28ZM3.5,26c-.28,0-.5-.22-.5-.5V8.5c0-.28.22-.5.5-.5h2.5v8.59l-1.97,8.51c-.07.3-.03.62.07.9h-.6ZM29.95,12.5l-2.99,13c-.06.28-.34.5-.61.5H5.34c-.28,0-.45-.22-.39-.5l2.99-13c.06-.28.34-.5.61-.5h21c.28,0,.45.22.39.5h.01Z"/>
  <path class="st0" d="M17.45,21.34c2.11,0,2.11-2.34,2.11-2.34v-3.28c0-2.34-2.11-2.34-2.11-2.34,0,0-2.11,0-2.11,2.34v3.28s0,2.34,2.11,2.34ZM15.82,15.72c0-1.8,1.47-1.87,1.64-1.87.18,0,1.64.06,1.64,1.87v1.4h-3.28s0-1.4,0-1.4ZM15.82,17.6h3.28v1.4c0,.08-.02,1.87-1.64,1.87s-1.64-1.68-1.64-1.87c0,0,0-1.4,0-1.4ZM20.49,17.13v2.11s0,.43-.16.96c-.16.52-.48,1.17-1.13,1.61-.39.26-.89.43-1.52.46v1.89h.94v.47h-2.34v-.47h.94v-1.89c-.63-.04-1.13-.2-1.52-.46-.44-.29-.72-.68-.91-1.06-.38-.76-.37-1.49-.38-1.51v-2.11h.47v2.11h0v.06s0,.1.01.18c.02.15.05.36.12.59.14.46.41,1,.94,1.35.36.24.83.4,1.49.4.62,0,1.08-.14,1.43-.36.35-.21.59-.5.76-.8.34-.6.39-1.26.39-1.4v-2.13h.47Z"/>
</svg>