<svg xmlns="http://www.w3.org/2000/svg" xmlns:xlink="http://www.w3.org/1999/xlink" version="1.1"  x="0px" y="0px" width="32" height="32" viewBox="0 0 32 32" style="enable-background:new 0 0 32 32;" xml:space="preserve" preserveAspectRatio="none" viewbox="0 0 32 32">
<path d="M10,22.5l9-6.5l-9-6.5V22.5z M10.995,11.456L17.287,16l-6.292,4.544V11.456z M25,4H7C5.343,4,4,5.343,4,7v18  c0,1.657,1.343,3,3,3h18c1.657,0,3-1.343,3-3V7C28,5.343,26.657,4,25,4z M27,25c0,1.104-0.896,2-2,2H7c-1.104,0-2-0.896-2-2V7  c0-1.104,0.896-2,2-2h18c1.104,0,2,0.896,2,2V25z M20,10h1v12h-1V10z"></path>
</svg>