<svg xmlns="http://www.w3.org/2000/svg" xmlns:xlink="http://www.w3.org/1999/xlink" version="1.1"  x="0px" y="0px" width="32" height="32" viewBox="0 0 32 32" style="enable-background:new 0 0 32 32;" xml:space="preserve" preserveAspectRatio="none" viewbox="0 0 32 32">
<path d="M25,4H7C5.34,4,4,5.34,4,7v18c0,1.66,1.34,3,3,3h18c1.66,0,3-1.34,3-3V7C28,5.34,26.66,4,25,4z M27,25c0,1.103-0.897,2-2,2  H7c-1.103,0-2-0.897-2-2V7c0-1.103,0.897-2,2-2h18c1.103,0,2,0.897,2,2V25z M23,10h1v12h-1V10z M19,10h1v12h-1V10z M8,22l9-6l-9-6  V22z M9,11.869L15.197,16L9,20.132V11.869z"></path>
</svg>