<svg xmlns="http://www.w3.org/2000/svg" xmlns:xlink="http://www.w3.org/1999/xlink" version="1.1"  x="0px" y="0px" width="32" height="32" viewBox="0 0 32 32" style="enable-background:new 0 0 32 32;" xml:space="preserve" preserveAspectRatio="none" viewbox="0 0 32 32">
<path d="M11,10h1v12h-1V10z M13,16l9-6.5v13L13,16z M21.006,11.456L14.713,16l6.292,4.544V11.456z M28,7v18c0,1.657-1.343,3-3,3H7  c-1.657,0-3-1.343-3-3V7c0-1.657,1.343-3,3-3h18C26.657,4,28,5.343,28,7z M27,7c0-1.104-0.896-2-2-2H7C5.896,5,5,5.896,5,7v18  c0,1.104,0.896,2,2,2h18c1.104,0,2-0.896,2-2V7z"></path>
</svg>