<?xml version="1.0" encoding="UTF-8"?>
<svg id="Capa_1" xmlns="http://www.w3.org/2000/svg" version="1.1" viewBox="0 0 32 32">
  <!-- Generator: Adobe Illustrator 30.0.0, SVG Export Plug-In . SVG Version: 2.1.1 Build 123)  -->
  <defs>
    <style>
      .st0 {
        fill: #fff;
      }
    </style>
  </defs>
  <path class="st0" d="M28,13v6c0,1.66-1.34,3-3,3H7c-1.66,0-3-1.34-3-3v-6c0-1.66,1.34-3,3-3h7.34l-2.91-2.91.71-.7,4.11,4.11-4.11,4.11-.71-.7,2.91-2.91h-7.34c-1.1,0-2,.9-2,2v6c0,1.1.9,2,2,2h18c1.1,0,2-.9,2-2v-6c0-1.1-.9-2-2-2h-6v-1h6c1.66,0,3,1.34,3,3Z"/>
</svg>