<svg xmlns="http://www.w3.org/2000/svg" xmlns:xlink="http://www.w3.org/1999/xlink" version="1.1"  x="0px" y="0px" width="32" height="32" viewBox="0 0 32 32" style="enable-background:new 0 0 32 32;" xml:space="preserve" preserveAspectRatio="none" viewbox="0 0 32 32">
<path d="M28,13v6c0,1.66-1.34,3-3,3H7c-1.66,0-3-1.34-3-3v-6c0-1.66,1.34-3,3-3h7.34l-2.91-2.91l0.71-0.7l4.11,4.11l-4.11,4.11  l-0.71-0.7L14.34,11H7c-1.1,0-2,0.9-2,2v6c0,1.1,0.9,2,2,2h18c1.1,0,2-0.9,2-2v-6c0-1.1-0.9-2-2-2h-6v-1h6C26.66,10,28,11.34,28,13z  "></path>
</svg>