<svg xmlns="http://www.w3.org/2000/svg" xmlns:xlink="http://www.w3.org/1999/xlink" version="1.1"  x="0px" y="0px" width="32" height="32" viewBox="0 0 32 32" style="enable-background:new 0 0 32 32;" xml:space="preserve" preserveAspectRatio="none" viewbox="0 0 32 32">
<path d="M15,22.5v-13L8,16L15,22.5z M14,20.258L9.415,16L14,11.742V20.258z M25,4H7C5.343,4,4,5.343,4,7v18c0,1.657,1.343,3,3,3h18  c1.657,0,3-1.343,3-3V7C28,5.343,26.657,4,25,4z M27,25c0,1.104-0.896,2-2,2H7c-1.104,0-2-0.896-2-2V7c0-1.104,0.896-2,2-2h18  c1.104,0,2,0.896,2,2V25z M22,22.5v-13L15,16L22,22.5z M21,20.258L16.414,16L21,11.742V20.258z"></path>
</svg>