<?xml version="1.0" encoding="UTF-8"?>
<svg id="Capa_1" xmlns="http://www.w3.org/2000/svg" version="1.1" viewBox="0 0 32 32">
  <!-- Generator: Adobe Illustrator 30.0.0, SVG Export Plug-In . SVG Version: 2.1.1 Build 123)  -->
  <defs>
    <style>
      .st0 {
        fill: #fff;
      }
    </style>
  </defs>
  <path class="st0" d="M27.71,6.79l-2.5-2.5c-.19-.19-.44-.29-.71-.29H5c-.55,0-1,.45-1,1v22c0,.55.45,1,1,1h22c.55,0,1-.45,1-1V7.5c0-.27-.1-.52-.29-.71ZM12,5h9v7h-9v-7ZM23,27h-14v-10h14v10ZM27,27h-3v-10c0-.55-.45-1-1-1h-14c-.55,0-1,.45-1,1v10h-3V5h6v7c0,.55.45,1,1,1h9c.55,0,1-.45,1-1v-7h2.5l2.5,2.5v19.5ZM18,6h2v5h-2v-5Z"/>
</svg>