<svg xmlns="http://www.w3.org/2000/svg" xmlns:xlink="http://www.w3.org/1999/xlink" version="1.1"  x="0px" y="0px" width="32" height="32" viewBox="0 0 32 32" style="enable-background:new 0 0 32 32;" xml:space="preserve" preserveAspectRatio="none" viewbox="0 0 32 32">
<path d="M27.707,6.793l-2.5-2.5C25.02,4.105,24.766,4,24.5,4H5C4.448,4,4,4.447,4,5v22c0,0.553,0.448,1,1,1h22c0.553,0,1-0.447,1-1  V7.5C28,7.234,27.895,6.98,27.707,6.793z M12,5h9v7h-9V5z M23,27H9V17h14V27z M27,27h-3V17c0-0.553-0.447-1-1-1H9  c-0.552,0-1,0.447-1,1v10H5V5h6v7c0,0.553,0.448,1,1,1h9c0.553,0,1-0.447,1-1V5h2.5L27,7.5V27z M18,6h2v5h-2V6z"></path>
</svg>