<?xml version="1.0" encoding="UTF-8"?>
<svg id="Capa_1" xmlns="http://www.w3.org/2000/svg" version="1.1" viewBox="0 0 32 32">
  <!-- Generator: Adobe Illustrator 30.0.0, SVG Export Plug-In . SVG Version: 2.1.1 Build 123)  -->
  <defs>
    <style>
      .st0 {
        fill: #fff;
      }
    </style>
  </defs>
  <path class="st0" d="M28.16,14.01l-1.99-.33c-.26-1.16-.72-2.25-1.34-3.23l1.18-1.65c.28-.4.24-.94-.11-1.29l-1.41-1.41c-.19-.19-.45-.29-.71-.29-.2,0-.41.06-.58.19l-1.65,1.18c-.98-.62-2.07-1.08-3.23-1.34l-.33-1.99c-.08-.48-.5-.84-.99-.84h-2c-.49,0-.91.35-.99.84l-.33,1.99c-1.16.26-2.25.72-3.23,1.34l-1.65-1.18c-.18-.12-.38-.19-.58-.19-.26,0-.51.1-.71.29l-1.41,1.41c-.35.35-.39.89-.11,1.29l1.18,1.65c-.62.98-1.08,2.07-1.34,3.23l-1.99.33c-.48.08-.84.5-.84.99v2c0,.49.35.91.84.99l1.99.33c.26,1.16.72,2.25,1.34,3.23l-1.18,1.65c-.28.4-.24.94.11,1.29l1.41,1.41c.19.19.45.29.71.29.2,0,.41-.06.58-.19l1.65-1.18c.98.62,2.07,1.08,3.23,1.34l.33,1.99c.08.48.5.84.99.84h2c.49,0,.91-.35.99-.84l.33-1.99c1.16-.26,2.25-.72,3.23-1.34l1.65,1.18c.17.12.38.19.58.19.26,0,.51-.1.71-.29l1.41-1.41c.35-.35.39-.89.11-1.29l-1.18-1.65c.62-.98,1.08-2.07,1.34-3.23l1.99-.33c.48-.08.84-.5.84-.99v-2c0-.49-.35-.91-.84-.99ZM28,17l-2.72.45c-.24,1.51-.83,2.9-1.69,4.08l1.6,2.24-1.41,1.41-2.24-1.6c-1.18.86-2.57,1.46-4.08,1.69l-.45,2.72h-2l-.45-2.72c-1.51-.24-2.9-.83-4.09-1.69l-2.24,1.6-1.41-1.41,1.6-2.24c-.86-1.18-1.46-2.57-1.69-4.08l-2.72-.45v-2l2.72-.45c.24-1.51.83-2.9,1.69-4.08l-1.6-2.24,1.41-1.41,2.24,1.6c1.18-.86,2.57-1.46,4.08-1.69l.45-2.72h2l.45,2.72c1.51.24,2.9.83,4.08,1.69l2.24-1.6,1.41,1.41-1.6,2.24c.86,1.18,1.46,2.57,1.69,4.08l2.72.45v2ZM16,13c-1.66,0-3,1.34-3,3s1.34,3,3,3,3-1.34,3-3-1.34-3-3-3ZM16,18c-1.1,0-2-.9-2-2s.9-2,2-2,2,.9,2,2-.9,2-2,2Z"/>
</svg>