<svg xmlns="http://www.w3.org/2000/svg" xmlns:xlink="http://www.w3.org/1999/xlink" version="1.1"  x="0px" y="0px" width="32" height="32" viewBox="0 0 32 32" style="enable-background:new 0 0 32 32;" xml:space="preserve" preserveAspectRatio="none" viewbox="0 0 32 32">
<path d="M28.164,14.014l-1.994-0.333c-0.264-1.164-0.724-2.25-1.341-3.231l1.177-1.647c0.284-0.397,0.239-0.942-0.106-1.288  l-1.414-1.414c-0.193-0.193-0.449-0.293-0.707-0.293c-0.202,0-0.406,0.062-0.581,0.187l-1.648,1.177  c-0.979-0.617-2.066-1.077-3.23-1.341l-0.332-1.994C17.906,3.354,17.488,3,17,3h-2c-0.489,0-0.906,0.354-0.986,0.836L13.682,5.83  c-1.164,0.264-2.251,0.724-3.23,1.341L8.803,5.994C8.628,5.869,8.425,5.808,8.222,5.808c-0.257,0-0.514,0.1-0.707,0.293L6.101,7.515  C5.755,7.86,5.709,8.405,5.994,8.803l1.177,1.648c-0.617,0.98-1.077,2.067-1.341,3.23l-1.994,0.333C3.354,14.094,3,14.512,3,15v2  c0,0.488,0.354,0.906,0.836,0.986l1.994,0.332c0.264,1.164,0.724,2.251,1.341,3.23l-1.177,1.648  c-0.284,0.397-0.239,0.942,0.107,1.288l1.415,1.414c0.193,0.193,0.45,0.293,0.707,0.293c0.202,0,0.406-0.061,0.581-0.186  l1.648-1.178c0.98,0.617,2.066,1.077,3.23,1.341l0.332,1.994C14.094,28.646,14.511,29,15,29h2c0.488,0,0.906-0.354,0.986-0.836  l0.332-1.994c1.164-0.264,2.251-0.724,3.23-1.341l1.648,1.178c0.175,0.125,0.379,0.186,0.581,0.186c0.258,0,0.514-0.1,0.707-0.293  l1.414-1.414c0.346-0.346,0.391-0.891,0.106-1.288l-1.177-1.647c0.617-0.98,1.077-2.067,1.341-3.231l1.994-0.332  C28.646,17.906,29,17.488,29,17v-2C29,14.512,28.646,14.094,28.164,14.014z M28,17l-2.717,0.453  c-0.235,1.512-0.827,2.901-1.691,4.084l1.601,2.241l-1.414,1.414l-2.241-1.601c-1.183,0.864-2.572,1.456-4.084,1.691L17,28h-2  l-0.453-2.717c-1.512-0.235-2.902-0.827-4.085-1.691l-2.241,1.601l-1.414-1.414l1.601-2.241c-0.864-1.183-1.456-2.573-1.691-4.084  L4,17v-2l2.717-0.453c0.235-1.512,0.827-2.901,1.691-4.084L6.808,8.222l1.414-1.414l2.241,1.601  c1.183-0.864,2.573-1.456,4.084-1.691L15,4h2l0.453,2.717c1.512,0.235,2.901,0.826,4.084,1.691l2.241-1.601l1.414,1.414  l-1.601,2.241c0.864,1.183,1.456,2.573,1.691,4.084L28,15V17z M16,13c-1.657,0-3,1.343-3,3s1.343,3,3,3c1.657,0,3-1.343,3-3  S17.657,13,16,13z M16,18c-1.104,0-2-0.896-2-2s0.896-2,2-2s2,0.896,2,2S17.104,18,16,18z"></path>
</svg>