<?xml version="1.0" encoding="UTF-8"?>
<svg id="Capa_1" xmlns="http://www.w3.org/2000/svg" version="1.1" viewBox="0 0 32 32">
  <!-- Generator: Adobe Illustrator 30.0.0, SVG Export Plug-In . SVG Version: 2.1.1 Build 123)  -->
  <defs>
    <style>
      .st0 {
        fill: #fff;
      }
    </style>
  </defs>
  <path class="st0" d="M25,4H7c-1.66,0-3,1.34-3,3v18c0,1.66,1.34,3,3,3h18c1.66,0,3-1.34,3-3V7c0-1.66-1.34-3-3-3ZM27,25c0,1.1-.9,2-2,2H7c-1.1,0-2-.9-2-2V7c0-1.1.9-2,2-2h18c1.1,0,2,.9,2,2v18ZM10,22h12v-12h-12v12ZM11,11h10v10h-10v-10Z"/>
</svg>